/* XPM */
static char *result[] = {
/* columns rows colors chars-per-pixel */
"40 40 114 2 ",
"   c black",
".  c #040302",
"X  c #050302",
"o  c #030703",
"O  c #050402",
"+  c #060403",
"@  c #070503",
"#  c #0B0504",
"$  c #0D0605",
"%  c #130B08",
"&  c #160C09",
"*  c #221710",
"=  c #241811",
"-  c #261A12",
";  c #2D1E15",
":  c #301D15",
">  c #2F2016",
",  c #312117",
"<  c #332017",
"1  c #322217",
"2  c #342319",
"3  c #372218",
"4  c #352419",
"5  c #36241A",
"6  c #36251A",
"7  c #37251A",
"8  c #37271B",
"9  c #382519",
"0  c #38261B",
"q  c #39271B",
"w  c #3D271B",
"e  c #3C291D",
"r  c #3D291D",
"t  c #3C2B1D",
"y  c #3F2A1E",
"u  c #1D3321",
"i  c #273724",
"p  c #323C28",
"a  c #40291D",
"s  c #402B1E",
"d  c #422D1D",
"f  c #432E1D",
"g  c #412C1E",
"h  c #412C1F",
"j  c #452E20",
"k  c #462E20",
"l  c #462F21",
"z  c #473021",
"x  c #473022",
"c  c #483021",
"v  c #483122",
"b  c #493122",
"n  c #4A3222",
"m  c #4B3223",
"M  c #4B3323",
"N  c #4D3424",
"B  c #4E3424",
"V  c #4E3524",
"C  c #4E3525",
"Z  c #4F3525",
"A  c #4F3625",
"S  c #4C382F",
"D  c #503721",
"F  c #503625",
"G  c #533921",
"H  c #5A3D27",
"J  c #533A28",
"K  c #593E2A",
"L  c #593F2A",
"P  c #463530",
"I  c #28462D",
"U  c #36452E",
"Y  c #304930",
"T  c #394E33",
"R  c #5D412C",
"E  c #5E412C",
"W  c #61442E",
"Q  c #63452F",
"!  c #6A492B",
"~  c #644630",
"^  c #6B4E31",
"/  c #694F33",
"(  c #7D5731",
")  c #755338",
"_  c #433C43",
"`  c #3F4F42",
"'  c #3F6F46",
"]  c #3E6E47",
"[  c #445D48",
"{  c #484451",
"}  c #43764B",
"|  c #43774C",
" . c #496154",
".. c #4E685F",
"X. c #5A7577",
"o. c #5A7C74",
"O. c #835B2E",
"+. c #816640",
"@. c #54925E",
"#. c #569562",
"$. c #579663",
"%. c #599A66",
"&. c #599A67",
"*. c #589C64",
"=. c #599D64",
"-. c #5D8E76",
";. c #5E8B7A",
":. c #C98F44",
">. c #D99945",
",. c #D99A46",
"<. c #DA9B47",
"1. c #D5B86E",
"2. c #E2B663",
"3. c None",
/* pixels */
"*.*.*.*.*.*.*.*.*.*.*.*.*.*.*.*.*.*.*.*.*.*.*.*.*.*.*.*.*.*.*.*.*.*.*.*.*.*.*.*.",
"*.*.*.*.*.*.*.*.*.*.*.*.*.*.*.*.*.*.*.*.*.*.*.*.*.*.*.*.*.*.*.*.*.*.*.*.*.*.*.*.",
"*.*.*.*.*.*.*.*.*.*.*.*.*.*.*.*.*.*.*.*.*.*.*.*.*.*.*.*.*.*.*.*.*.*.*.*.*.*.*.*.",
"*.*.*.*.*.*.*.*.*.*.*.*.*.*.*.*.*.*.*.*.*.*.*.*.*.*.*.*.*.*.*.*.*.*.*.*.*.*.*.*.",
"*.*.*.*.*.*.*.*.*.*.*.*.*.*.*.*.*.*.*.*.*.*.*.*.*.*.*.*.*.*.*.*.*.*.*.*.*.*.*.*.",
"*.*.*.*.*.*.*.*.*.*.*.*.*.*.*.*.*.*.*.*.*.*.*.*.*.*.*.*.*.*.*.*.*.*.*.*.*.*.*.*.",
"*.*.*.*.*.*.*.*.*.*.&.#.@.@.@.@.@.@.@.@.@.@.@.@.@.@.@.$.%.*.*.*.*.*.*.*.*.*.*.*.",
"*.*.*.*.*.*.*.*.*.*.;. .U U U U U U U U U U U U U U U ..-.*.*.*.*.*.*.*.*.*.*.*.",
"*.*.*.*.*.*.*.*.*.*.X._ : : : : : : : : : : : : : : : { o.*.*.*.*.*.*.*.*.*.*.*.",
"*.*.*.*.*.*.*.*.*.*.` S E E E E E E E E E E E E E E E P [ *.*.*.*.*.*.*.*.*.*.*.",
"*.*.*.*.*.*.*.*.*.*.p F ) ) ) ) ) ) ) ) ) ) ) ) ) ) ) k T *.*.*.*.*.*.*.*.*.*.*.",
"*.*.*.*.*.*.*.*.*.*.p F ) ) ) ) ) ) ) ) ) ) ) ) ) ) ) k T *.*.*.*.*.*.*.*.*.*.*.",
"*.*.*.*.*.*.*.*.*.*.p c Q R R R R R R R R R R R R R ~ a T *.*.*.*.*.*.*.*.*.*.*.",
"*.*.*.*.*.*.*.*.*.*.p w x q q q q q q q q q q q q q M 3 T *.*.*.*.*.*.*.*.*.*.*.",
"*.*.*.*.*.*.*.*.*.*.p j C 0 h g 4 y h h h r 7 h h 7 J w T *.*.*.*.*.*.*.*.*.*.*.",
"*.*.*.*.*.*.*.*.*.*.p F K r F V 6 M F F F z q F F q W k T *.*.*.*.*.*.*.*.*.*.*.",
"*.*.*.*.*.*.*.*.*.*.p F K r F A j V F F F z q F F q W k T *.*.*.*.*.*.*.*.*.*.*.",
"*.*.*.*.*.*.*.*.*.*.p F K r F F F F F F F v e F F q W k T *.*.*.*.*.*.*.*.*.*.*.",
"*.*.*.*.*.*.*.*.*.*.p F K r F F F F F F F N b F F q W k T *.*.*.*.*.*.*.*.*.*.*.",
"*.*.*.*.*.*.*.*.*.*.p F K r F F F F F F F F F F F q W k T *.*.*.*.*.*.*.*.*.*.*.",
"*.*.*.*.*.*.*.*.*.*.p F K r F F F F F F F F F F F q W k T *.*.*.*.*.*.*.*.*.*.*.",
"*.*.*.*.*.*.*.*.*.*.p F K r F F F F F F F F L +.( d W k T *.*.*.*.*.*.*.*.*.*.*.",
"*.*.*.*.*.*.*.*.*.*.p F K r F F F F F F F F / 1.:.D W k T *.*.*.*.*.*.*.*.*.*.*.",
"*.*.*.*.*.*.*.*.*.*.p F K r F F F F F F F F ^ 2.<.G W k T *.*.*.*.*.*.*.*.*.*.*.",
"*.*.*.*.*.*.*.*.*.*.p F K r F F F F F F F F ! ,.>.G W k T *.*.*.*.*.*.*.*.*.*.*.",
"*.*.*.*.*.*.*.*.*.*.p F K r F F F F F F F F H O.O.f W k T *.*.*.*.*.*.*.*.*.*.*.",
"*.*.*.*.*.*.*.*.*.*.p F K r F F V F F F F F M 5 5 2 W k T *.*.*.*.*.*.*.*.*.*.*.",
"*.*.*.*.*.*.*.*.*.*.p F K r F Z s N F F F F V l l 7 W k T *.*.*.*.*.*.*.*.*.*.*.",
"*.*.*.*.*.*.*.*.*.*.p F K r F V 5 m F F F F F F F q W k T *.*.*.*.*.*.*.*.*.*.*.",
"*.*.*.*.*.*.*.*.*.*.p F K r F V 5 m F F F F F F F q W k T *.*.*.*.*.*.*.*.*.*.*.",
"*.*.*.*.*.*.*.*.*.*.p F K r F V 5 m F F F B n F F q W k T *.*.*.*.*.*.*.*.*.*.*.",
"*.*.*.*.*.*.*.*.*.*.p F K r F V 5 m F F F b r F F q W k T *.*.*.*.*.*.*.*.*.*.*.",
"*.*.*.*.*.*.*.*.*.*.p 9 8 - 1 , * > 1 1 1 ; = 1 1 = t < T *.*.*.*.*.*.*.*.*.*.*.",
"*.*.*.*.*.*.*.*.*.*.p % @ X + + . + + + + O . + + . @ & T *.*.*.*.*.*.*.*.*.*.*.",
"*.*.*.*.*.*.*.*.*.*.i #                               $ Y *.*.*.*.*.*.*.*.*.*.*.",
"*.*.*.*.*.*.*.*.*.*.u 3.3.3.3.3.3.3.3.3.3.3.3.3.3.3.3.o I *.*.*.*.*.*.*.*.*.*.*.",
"*.*.*.*.*.*.*.*.*.*.] } =.=.=.=.=.=.=.=.=.=.=.=.=.=.=.' | *.*.*.*.*.*.*.*.*.*.*.",
"*.*.*.*.*.*.*.*.*.*.*.*.*.*.*.*.*.*.*.*.*.*.*.*.*.*.*.*.*.*.*.*.*.*.*.*.*.*.*.*.",
"*.*.*.*.*.*.*.*.*.*.*.*.*.*.*.*.*.*.*.*.*.*.*.*.*.*.*.*.*.*.*.*.*.*.*.*.*.*.*.*.",
"*.*.*.*.*.*.*.*.*.*.*.*.*.*.*.*.*.*.*.*.*.*.*.*.*.*.*.*.*.*.*.*.*.*.*.*.*.*.*.*."
};
