/* XPM */
static char *result[] = {
/* columns rows colors chars-per-pixel */
"40 40 12 1 ",
"  c black",
". c #342319",
"X c #36271C",
"o c #503625",
"O c #385C4B",
"+ c #6E5649",
"@ c #947B6B",
"# c #589C64",
"$ c #677598",
"% c #8F9AB0",
"& c #C6BBB9",
"* c #B6BEC8",
/* pixels */
"########################################",
"########################################",
"########################################",
"########################################",
"########################################",
"########################################",
"########################################",
"########################################",
"########################################",
"########################################",
"#################      #################",
"################ &&&&&& ################",
"############### &&&&&&&& ####   ########",
"############## &&&&&&&&& ### ** ########",
"############## &&&@@@&@@ ## *%* ########",
"############## &&&&  &  ## *%%$ ########",
"############## &&&&  &    *%%$ #########",
"############## @&&&&&&&& o%%$ ##########",
"############# &&@++&+&+& .oo ###########",
"############# @+@@++++++ ..o ###########",
"############ &&@X@&&&+&@@   ############",
"############ &&X+XX++X+@@ ##############",
"#############   @@&&&@&  ###############",
"############### @@&&&& #################",
"##############O    &&&& O###############",
"#############OOOOOO &&& OO##############",
"#############OOOOOOOOOOOOO##############",
"##############OOOOOOOOOOO###############",
"########################################",
"########################################",
"########################################",
"########################################",
"########################################",
"########################################",
"########################################",
"########################################",
"########################################",
"########################################",
"########################################",
"########################################"
};
