/* XPM */
static char *result[] = {
/* columns rows colors chars-per-pixel */
"40 40 143 2 ",
"   c #362D20",
".  c #242B3D",
"X  c #5B1F3E",
"o  c #503A28",
"O  c #762C3C",
"+  c #2E5737",
"@  c #325A3A",
"#  c #395F3E",
"$  c #3C613E",
"%  c #5F4534",
"&  c #504F35",
"*  c #53553A",
"=  c #575438",
"-  c #715532",
";  c #262D40",
":  c #293D44",
">  c #2E354B",
",  c #31384E",
"<  c #353D54",
"1  c #7D2140",
"2  c #294942",
"3  c #2D5745",
"4  c #2C5B44",
"5  c #2F5F4A",
"6  c #315D4D",
"7  c #2A415F",
"8  c #374455",
"9  c #354B51",
"0  c #374058",
"q  c #384E58",
"w  c #2E5458",
"e  c #3C525E",
"r  c #296640",
"t  c #2C6A43",
"y  c #326D46",
"u  c #3A6D4A",
"i  c #33744A",
"p  c #37784E",
"a  c #38794F",
"s  c #3A6152",
"d  c #3B7E52",
"f  c #2C4760",
"g  c #3D4660",
"h  c #304F60",
"j  c #3F4963",
"k  c #3E4D7B",
"l  c #396462",
"z  c #534D47",
"x  c #6E5544",
"c  c #755B49",
"v  c #496945",
"b  c #5D6E4E",
"n  c #427756",
"m  c #447E5B",
"M  c #507951",
"N  c #587B5C",
"B  c #686646",
"V  c #414B66",
"C  c #4B5673",
"Z  c #4E5A77",
"A  c #525D7C",
"S  c #6D6D60",
"D  c #8A303E",
"F  c #885A2C",
"G  c #945723",
"H  c #875933",
"J  c #BC6924",
"K  c #AB783A",
"L  c #933A47",
"P  c #A23348",
"I  c #A93D4D",
"U  c #B4424F",
"Y  c #BC4952",
"T  c #81624B",
"R  c #856751",
"E  c #3E8254",
"W  c #408257",
"Q  c #45835B",
"!  c #468E5D",
"~  c #51865B",
"^  c #54855C",
"/  c #49915F",
"(  c #4B8C61",
")  c #568565",
"_  c #548B61",
"`  c #4C9462",
"'  c #4E9864",
"]  c #559365",
"[  c #509B66",
"{  c #5D966E",
"}  c #539D69",
"|  c #4F8273",
" . c #618A6E",
".. c #56A16C",
"X. c #59A36E",
"o. c #5BA471",
"O. c #5EA974",
"+. c #63A272",
"@. c #60AB76",
"#. c #63AE79",
"$. c #70AA7F",
"%. c #65B17B",
"&. c #69B57F",
"*. c #D28D3D",
"=. c #A8856B",
"-. c #BF9D76",
";. c #CD9042",
":. c #D99945",
">. c #C58651",
",. c #C48D5C",
"<. c #CA9466",
"1. c #C2A077",
"2. c #4F5984",
"3. c #566281",
"4. c #5A6787",
"5. c #5E6B8D",
"6. c #42639F",
"7. c #657396",
"8. c #677598",
"9. c #74AB82",
"0. c #7AAE86",
"q. c #74B585",
"w. c #79B98A",
"e. c #4D8AB3",
"r. c #83B28E",
"t. c #8DBA96",
"y. c #95B295",
"u. c #BCA58A",
"i. c #B7A190",
"p. c #BBAA93",
"a. c #A8BCA9",
"s. c #B6B6A1",
"d. c #C3AC9A",
"f. c #C0B191",
"g. c #D3B091",
"h. c #C8B3A2",
"j. c #AFC8B0",
"k. c #B0C7B0",
"l. c #B9CCB7",
"z. c #BDCCBA",
"x. c #D8C0A9",
"c. c #DBC9B8",
"v. c #DDD1C4",
/* pixels */
"[ [ [ [ [ [ [ [ [ [ [ [ [ [ [ [ ....[ [ [ [ [ [ [ [ [ [ [ [ [ [ [ [ [ [ [ [ [ [ ",
"[ [ [ ' [ [ [ [ [ [ [ [ O.%.[ ..q.i / [ [ [ [ [ [ [ [ [ [ [ [ [ [ [ ..%.[ [ [ ' ",
"[ #.%.} [ ..[ [ [ [ [ [ ` O.q...E E ..[ [ [ [ [ [ [ [ [ [ [ [ [ [ [ ' %.O...q...",
"/ p &.X.%.&.[ [ [ [ [ [ ! y #.' O.q.X.[ [ [ [ [ [ [ [ [ [ [ [ [ ' ' E p #.%...i ",
"' E E ..&.d p ' [ [ [ [ [ [ [ [ %./ i [ [ } %.%.} [ [ [ [ [ [ [ [ [ [ / ! o.p ' ",
"[ [ ' [ } ! [ [ [ [ [ [ [ [ [ [ X.E [ [ ..E E &.X.[ [ [ [ [ [ [ [ [ ! r r y %.&.",
"[ [ [ [ [ [ [ [ [ [ [ [ [ [ [ [ } [ [ [ } [ &.E ..X.@./ [ [ [ [ ` %./ r r i %.p ",
"[ [ [ [ [ [ [ [ [ [ [ [ [ [ [ [ } [ [ [ [ E ..%.[ %.i E [ [ [ [ E p O./ ! ' [ ! ",
"[ [ [ [ [ [ [ [ [ [ [ [ [ [ [ [ [ [ [ [ [ ` i O.[ [ [ [ [ [ [ [ [ [ [ [ [ [ [ [ ",
"[ [ [ [ [ [ [ [ [ [ [ [ [ [ [ [ [ [ [ [ [ [ [ [ [ [ [ ' [ [ [ [ [ [ [ [ [ [ [ [ ",
"..' [ [ ' [ } q.#.[ [ [ [ [ ' ' [ O.o.` [ [ [ ` w 9 < 8 ` [ [ [ [ [ [ [ [ [ [ [ ",
"&...[ [ ' ' q.` i [ [ [ [ [ [ ' [ X.r ` [ [ [ 9 7.8.7.7.e [ [ [ [ [ [ ' [ [ [ [ ",
"O...m m Q } O.i ' [ [ [ [ ` 8 < > ( [ [ [ [ [ > 8.8.8.8.Z ; ` ' [ [ / ! [ [ ' ' ",
"/ s 3.3.< m [ [ [ [ [ [ [ e 7.8.5.0 ( [ [ [ d > 5.8.8.C j ; E [ ' p r r E [ ..#.",
"Q A 8.8.7.< ( [ [ [ [ [ [ g 8.8.5.g E [ [ [ d : j j j e 5 i [ [ ..' i i [ [ q.o.",
"Q V 8.8.8.A ; [ [ [ [ [ [ 2 C C j p ` [ [ [ [ E 5 6 t r ( [ [ i ' %.' [ [ [ o.t ",
"/ 2 g 2.4.g 2 } [ ' / r ! ! i i i [ [ [ [ [ [ [ [ [ [ [ [ [ [ [ i O.` 8 < n [ [ ",
"' / 4 6 r 4 ..q.[ ' r r r E ' [ [ [ [ [ [ [ [ [ [ [ [ [ [ [ [ [ [ [ 3 5.8., d [ ",
"' [ [ [ [ [ &.E p ' ' i i ' [ [ [ [ [ [ [ [ [ [ [ [ [ [ [ [ [ [ [ [ 4 q e : d [ ",
"[ [ [ [ [ [ ..! [ ' } ' } ' [ [ [ [ [ [ [ [ [ [ [ [ [ [ [ [ [ [ [ ' ' / ! ! [ [ ",
"[ [ [ [ [ [ [ [ [ [ [ [ [ [ [ [ [ [ [ [ [ [ [ [ [ [ [ [ [ [ [ [ [ [ [ [ ' [ [ [ ",
"[ [ [ [ [ ' [ [ [ [ [ o.#.[ [ [ [ [ [ [ [ [ [ [ [ [ [ [ [ [ [ [ [ [ [ [ [ [ [ [ ",
"#.l.x...X.O./ [ [ ' [ ' &.O.9.+.[ } ..[ ` X.O.} 9.[ [ [ [ [ [ [ [ [ [ [ [ [ [ [ ",
"q.] c.w.#.y / [ [ ' ' E a t.,.1.q.q.X.[ ( t X.k.>.k.[ [ [ [ [ [ [ [ [ [ [ [ [ [ ",
"d ..i { x.y.[ [ [ [ [ X.&.t.,.-.q.( i [ ' ' ' s.>.a.#.X.` [ [ [ [ [ [ [ [ [ [ [ ",
"#.O.[ j.J g.[ [ [ [ [ p.>.1. ._ j.t.' [ [ ' ../ ) ` ( t ` ' [ [ [ [ [ [ [ [ @...",
"` %.%.[ z.0.[ [ [ [ [ p.>.&.X.r.<.y.[ [ [ [ [ [ [ [ [ [ ' } [ ! @.X.+.$.[ %.#.' ",
"E i %.[ [ [ [ [ [ [ [ ` ) ` &.] ) ` [ [ [ [ [ [ [ [ [ [ } ' ' ( y %.f.v.z.w.i E ",
"[ [ [ [ [ [ [ [ [ [ [ [ [ i O.[ [ [ [ [ [ [ [ [ [ [ [ [ ' ' ' [ [ %.z.m p.c.[ [ ",
"[ [ [ [ [ [ [ [ [ [ [ [ [ [ [ [ [ [ [ [ [ [ [ [ [ [ [ [ ' ..[ [ a a o.[ / ^ [ [ ",
"[ [ [ [ [ [ [ [ [ [ [ [ [ N N _ [ [ [ [ [ [ [ [ [ [ [ [ [ [ [ [ [ [ [ [ ..[ [ [ ",
"[ [ [ [ [ [ [ [ [ [ [ [ 1 I I L _ [ [ [ [ [ [ [ [ [ [ [ [ [ [ [ [ [ [ [ [ [ [ [ ",
"[ [ [ [ [ B x b [ ` o.S U Y Y Y 1 [ [ [ [ [ [ [ [ [ [ [ [ [ [ [ [ [ [ [ [ [ [ [ ",
"[ O.O.[ = d.h.i.& ` r z P Y Y U O [ [ [ [ [ [ [ [ [ [ [ [ [ [ [ [ [ [ [ [ [ [ [ ",
"' [ q...% d.h.d.o [ m < X D L O ~ [ [ [ [ [ [ [ [ [ [ [ [ [ [ [ [ [ [ [ [ [ [ [ ",
"' i * ~ M R =.T ~ ' ; 4.. @ # y ' [ [ [ [ [ [ [ [ 7 7 f [ [ [ [ %.[ & & [ O.O...",
"' * u.c t & = @ [ [ i i u [ [ [ [ [ [ [ [ [ ..[ h e.e.6.l X.[ i d - :.:.B $.../ ",
"' u v $ [ [ ..` [ [ [ [ [ [ [ [ [ [ [ [ [ i o.@.h e.e.6.l [ [ [ v ;.:.:.K v i / ",
"..[ [ [ } O.r ! [ [ [ [ [ [ [ [ [ [ [ [ [ ` i O.w 2.2.k | X.` [ M G *.*.F ] [ [ ",
"' ' [ [ [ ' ! [ [ [ [ [ [ [ [ [ [ [ [ [ [ [ [ ' i + @ @ [ t ` [ }   H o +.W E [ "
};
