/* XPM */
static char *result[] = {
/* columns rows colors chars-per-pixel */
"40 40 149 2 ",
"   c #761B3D",
".  c #791E3E",
"X  c #67263F",
"o  c #70213F",
"O  c #5B3241",
"+  c #5E3643",
"@  c #533B43",
"#  c #513E44",
"$  c #5A3843",
"%  c #593C44",
"&  c #6F2640",
"*  c #652D40",
"=  c #672E41",
"-  c #6E2C42",
";  c #732740",
":  c #7F2240",
">  c #792440",
",  c #792B41",
"<  c #633342",
"1  c #6E3043",
"2  c #6C3243",
"3  c #683744",
"4  c #763F49",
"5  c #3D5549",
"6  c #3D5649",
"7  c #3C574A",
"8  c #39594A",
"9  c #3B594A",
"0  c #385B4A",
"q  c #385C4B",
"w  c #395E4B",
"e  c #3A604C",
"r  c #3B634D",
"t  c #3B624E",
"y  c #3C654E",
"u  c #3E6850",
"i  c #3F6950",
"p  c #4F4445",
"a  c #4C4546",
"s  c #474A46",
"d  c #464B47",
"f  c #444D47",
"g  c #444F48",
"h  c #484C48",
"j  c #504546",
"k  c #5B4849",
"l  c #405248",
"z  c #47544A",
"x  c #455C4D",
"c  c #575B4F",
"v  c #6A4148",
"b  c #684A4B",
"n  c #704048",
"m  c #744E4D",
"M  c #69554F",
"N  c #655B50",
"B  c #645C50",
"V  c #44634F",
"C  c #436C51",
"Z  c #416D52",
"A  c #416F53",
"S  c #536D54",
"D  c #437253",
"F  c #447455",
"G  c #487C57",
"H  c #487B58",
"J  c #487C58",
"K  c #497F58",
"L  c #5F7558",
"P  c #507F5A",
"I  c #5F7959",
"U  c #5E7B5A",
"Y  c #636152",
"T  c #636D56",
"R  c #616F56",
"E  c #822140",
"W  c #832240",
"Q  c #822641",
"!  c #872441",
"~  c #882743",
"^  c #8E2743",
"/  c #822943",
"(  c #812B43",
")  c #842942",
"_  c #832F45",
"`  c #8A2843",
"'  c #8B2843",
"]  c #922843",
"[  c #932B44",
"{  c #942A44",
"}  c #942B44",
"|  c #972B45",
" . c #912C45",
".. c #952C44",
"X. c #992C45",
"o. c #9B2D45",
"O. c #9C2D46",
"+. c #9D2D46",
"@. c #9E2E46",
"#. c #9F2F47",
"$. c #833445",
"%. c #873D4A",
"&. c #963147",
"*. c #973247",
"=. c #9A3348",
"-. c #9E3248",
";. c #9E394B",
":. c #A13147",
">. c #A23449",
",. c #A33449",
"<. c #A03B4B",
"1. c #A5394B",
"2. c #A53B4B",
"3. c #A93C4C",
"4. c #A93D4D",
"5. c #AD3C4C",
"6. c #AC3F4D",
"7. c #AF3E4D",
"8. c #AF3F4E",
"9. c #B44450",
"0. c #B54550",
"q. c #B94651",
"w. c #B84751",
"e. c #BB4952",
"r. c #BC4952",
"t. c #4B845A",
"y. c #4C855B",
"u. c #4F885D",
"i. c #4F8B5D",
"p. c #5D805C",
"a. c #5D835D",
"s. c #508C5D",
"d. c #528E5E",
"f. c #5C895E",
"g. c #5B8F60",
"h. c #539261",
"j. c #559661",
"k. c #559562",
"l. c #569762",
"z. c #5A9060",
"x. c #5A9061",
"c. c #5A9361",
"v. c #5A9562",
"b. c #579962",
"n. c #579A63",
"m. c #589863",
"M. c #589A64",
"N. c #589B64",
"B. c #589C64",
/* pixels */
"B.B.B.B.B.B.B.B.B.B.B.B.B.B.B.B.B.B.B.B.B.B.B.B.B.B.B.B.B.B.B.B.B.B.B.B.B.B.B.B.",
"B.B.B.B.B.B.B.B.B.B.B.B.B.B.B.B.B.B.B.B.B.B.B.B.B.B.B.B.B.B.B.B.B.B.B.B.B.B.B.B.",
"B.B.B.B.B.B.B.B.B.B.B.B.B.B.B.B.B.B.B.B.B.B.B.B.B.B.B.B.B.B.B.B.B.B.B.B.B.B.B.B.",
"B.B.B.B.B.B.B.B.B.B.B.B.B.B.B.B.B.B.B.B.B.B.B.B.B.B.B.B.B.B.B.B.B.B.B.B.B.B.B.B.",
"B.B.B.B.B.B.B.B.B.B.B.B.B.B.B.B.B.B.B.B.B.B.B.B.B.B.B.B.B.B.B.B.B.B.B.B.B.B.B.B.",
"B.B.B.B.B.B.B.B.B.B.B.B.B.B.B.B.B.B.B.B.B.B.B.B.B.B.B.B.B.B.B.B.B.B.B.B.B.B.B.B.",
"B.B.B.B.B.B.B.B.B.B.B.B.B.B.B.B.B.B.B.B.B.B.B.B.B.B.B.B.B.B.B.B.B.B.B.B.B.B.B.B.",
"B.B.B.B.B.B.B.B.B.B.B.B.B.B.B.B.B.B.B.B.B.B.B.B.B.B.B.B.B.B.B.B.B.B.B.B.B.B.B.B.",
"B.B.B.B.B.B.B.B.B.B.B.B.B.B.B.B.B.B.B.B.B.B.B.B.B.B.B.B.B.B.B.B.B.B.B.B.B.B.B.B.",
"B.B.B.B.B.B.B.B.B.B.B.B.B.B.z.p.L L L p.z.m.f.I L L I f.m.B.B.B.B.B.B.B.B.B.B.B.",
"B.B.B.B.B.B.B.B.B.B.B.B.B.B.p.B v v v B p.c.R b v v b R c.B.B.B.B.B.B.B.B.B.B.B.",
"B.B.B.B.B.B.B.B.B.B.B.M.v.x.T n . . . n T a.M ;     ; M a.c.m.B.B.B.B.B.B.B.B.B.",
"B.B.B.B.B.B.B.B.B.B.B.v.U Y m %.&.&.&.%.m M 4 ) ! ! ) 4 M R f.B.B.B.B.B.B.B.B.B.",
"B.B.B.B.B.B.B.B.B.B.B.x.Y 2 _ <.9.9.9.<._ ; ) ..X.X...) ; b I B.B.B.B.B.B.B.B.B.",
"B.B.B.B.B.B.B.B.B.B.B.g.N & ~ 2.r.r.r.6.*.` [ O.@.@.X.!   v L B.B.B.B.B.B.B.B.B.",
"B.B.B.B.B.B.B.B.B.B.B.g.N & ~ 2.r.r.r.0.6.1.>.#.@.@.X.!   v L B.B.B.B.B.B.B.B.B.",
"B.B.B.B.B.B.B.B.B.B.B.x.Y 2 _ <.0.w.e.r.r.q.5.:.+.o...) ; b I B.B.B.B.B.B.B.B.B.",
"B.B.B.B.B.B.B.B.B.B.B.v.U Y m %.=.4.w.r.r.q.5.:.| ^ ) 4 M R f.B.B.B.B.B.B.B.B.B.",
"B.B.B.B.B.B.B.B.B.B.B.M.v.x.T n : =.0.r.r.q.5.:.] E ; M a.c.m.B.B.B.B.B.B.B.B.B.",
"B.B.B.B.B.B.B.B.B.B.B.n.h.i.S k = $.;.3.8.7.>.{ / - + c P d.j.B.B.B.B.B.B.B.B.B.",
"B.B.B.B.B.B.B.B.B.B.B.l.y.F V z j 3 (  .-.,.[ W - % h x C G d.B.B.B.B.B.B.B.B.B.",
"B.B.B.B.B.B.B.B.B.B.B.k.J r q q 5 # X > ' } Q o O s q q q A u.B.B.B.B.B.B.B.B.B.",
"B.B.B.B.B.B.B.B.B.B.B.k.J r q q 9 d # < , Q 1 $ a l q q q A u.B.B.B.B.B.B.B.B.B.",
"B.B.B.B.B.B.B.B.B.B.B.k.J r q q 0 9 5 p * o $ g 7 8 q q q A u.B.B.B.B.B.B.B.B.B.",
"B.B.B.B.B.B.B.B.B.B.B.l.y.F i t q q q f @ O a 7 q q w y Z G d.B.B.B.B.B.B.B.B.B.",
"B.B.B.B.B.B.B.B.B.B.B.n.h.i.H i q q q 6 f s l 8 q q e D t.d.j.B.B.B.B.B.B.B.B.B.",
"B.B.B.B.B.B.B.B.B.B.B.B.B.B.i.F r r r r r r r r r r u K j.B.B.B.B.B.B.B.B.B.B.B.",
"B.B.B.B.B.B.B.B.B.B.B.B.B.B.h.y.J J J J J J J J J J K s.b.B.B.B.B.B.B.B.B.B.B.B.",
"B.B.B.B.B.B.B.B.B.B.B.B.B.B.n.l.k.k.k.k.k.k.k.k.k.k.j.b.N.B.B.B.B.B.B.B.B.B.B.B.",
"B.B.B.B.B.B.B.B.B.B.B.B.B.B.B.B.B.B.B.B.B.B.B.B.B.B.B.B.B.B.B.B.B.B.B.B.B.B.B.B.",
"B.B.B.B.B.B.B.B.B.B.B.B.B.B.B.B.B.B.B.B.B.B.B.B.B.B.B.B.B.B.B.B.B.B.B.B.B.B.B.B.",
"B.B.B.B.B.B.B.B.B.B.B.B.B.B.B.B.B.B.B.B.B.B.B.B.B.B.B.B.B.B.B.B.B.B.B.B.B.B.B.B.",
"B.B.B.B.B.B.B.B.B.B.B.B.B.B.B.B.B.B.B.B.B.B.B.B.B.B.B.B.B.B.B.B.B.B.B.B.B.B.B.B.",
"B.B.B.B.B.B.B.B.B.B.B.B.B.B.B.B.B.B.B.B.B.B.B.B.B.B.B.B.B.B.B.B.B.B.B.B.B.B.B.B.",
"B.B.B.B.B.B.B.B.B.B.B.B.B.B.B.B.B.B.B.B.B.B.B.B.B.B.B.B.B.B.B.B.B.B.B.B.B.B.B.B.",
"B.B.B.B.B.B.B.B.B.B.B.B.B.B.B.B.B.B.B.B.B.B.B.B.B.B.B.B.B.B.B.B.B.B.B.B.B.B.B.B.",
"B.B.B.B.B.B.B.B.B.B.B.B.B.B.B.B.B.B.B.B.B.B.B.B.B.B.B.B.B.B.B.B.B.B.B.B.B.B.B.B.",
"B.B.B.B.B.B.B.B.B.B.B.B.B.B.B.B.B.B.B.B.B.B.B.B.B.B.B.B.B.B.B.B.B.B.B.B.B.B.B.B.",
"B.B.B.B.B.B.B.B.B.B.B.B.B.B.B.B.B.B.B.B.B.B.B.B.B.B.B.B.B.B.B.B.B.B.B.B.B.B.B.B.",
"B.B.B.B.B.B.B.B.B.B.B.B.B.B.B.B.B.B.B.B.B.B.B.B.B.B.B.B.B.B.B.B.B.B.B.B.B.B.B.B."
};
