/* XPM */
static char *result[] = {
/* columns rows colors chars-per-pixel */
"40 40 156 2 ",
"   c #060402",
".  c #0C0804",
"X  c #050808",
"o  c #0E0E09",
"O  c #150D09",
"+  c #150E09",
"@  c #0E140D",
"#  c #16120B",
"$  c #1D150D",
"%  c #0F131D",
"&  c #1C1611",
"*  c #131A13",
"=  c #101D1F",
"-  c #25170E",
";  c #23180F",
":  c #261E12",
">  c #2B1D12",
",  c #162014",
"<  c #19231A",
"1  c #1E2E1E",
"2  c #272115",
"3  c #272819",
"4  c #2D2D1C",
"5  c #332114",
"6  c #3B2516",
"7  c #3D2819",
"8  c #26311F",
"9  c #1B2525",
"0  c #1D2C22",
"q  c #1E3128",
"w  c #352C22",
"e  c #223321",
"r  c #243C27",
"t  c #2C3925",
"y  c #36342B",
"u  c #393730",
"i  c #393A33",
"p  c #402717",
"a  c #412817",
"s  c #442B1A",
"d  c #482F1C",
"f  c #4D321E",
"g  c #50341F",
"h  c #4D3321",
"j  c #473629",
"k  c #563923",
"l  c #593B25",
"z  c #5D3E2A",
"x  c #4E3C31",
"c  c #26422A",
"v  c #28452D",
"b  c #29482E",
"n  c #30402B",
"m  c #2B4738",
"M  c #304930",
"N  c #2F5335",
"B  c #325234",
"V  c #365B3B",
"C  c #37623E",
"Z  c #38623F",
"A  c #5B402A",
"S  c #454234",
"D  c #544336",
"F  c #5A4231",
"G  c #5D4A37",
"H  c #534539",
"J  c #5B4639",
"K  c #4B523F",
"L  c #64442D",
"P  c #644531",
"I  c #6B4933",
"U  c #6B4D3A",
"Y  c #714E36",
"T  c #68503C",
"R  c #74533C",
"E  c #79533C",
"W  c #283554",
"Q  c #1A3563",
"!  c #345545",
"~  c #385746",
"^  c #3A5947",
"/  c #365949",
"(  c #395D4C",
")  c #3A6541",
"_  c #3E6E46",
"`  c #3B624D",
"'  c #3F7148",
"]  c #1F4172",
"[  c #384869",
"{  c #274573",
"}  c #354B74",
"|  c #324D7A",
" . c #3F5274",
".. c #3A527C",
"X. c #7E5942",
"o. c #725E4C",
"O. c #43774C",
"+. c #44794D",
"@. c #457655",
"#. c #477956",
"$. c #487D53",
"%. c #497D58",
"&. c #686250",
"*. c #766A58",
"=. c #42567A",
"-. c #7C6A68",
";. c #646574",
":. c #706970",
">. c #787479",
",. c #875F46",
"<. c #865F48",
"1. c #88644A",
"2. c #91664B",
"3. c #906951",
"4. c #9B6E52",
"5. c #8A745E",
"6. c #9D7054",
"7. c #99755B",
"8. c #A67759",
"9. c #AA7A5C",
"0. c #947C64",
"q. c #A47B60",
"w. c #AA7F63",
"e. c #4B8455",
"r. c #4F8B59",
"t. c #518E5E",
"y. c #53935F",
"u. c #559661",
"i. c #569963",
"p. c #589C64",
"a. c #97826B",
"s. c #9C8972",
"d. c #A88067",
"f. c #AB856B",
"g. c #B18669",
"h. c #A08B71",
"j. c #AC987E",
"k. c #B89779",
"l. c #B49C7F",
"z. c #2C518D",
"x. c #2657A2",
"c. c #2D63B2",
"v. c #3D6CB2",
"b. c #4271B5",
"n. c #877D86",
"m. c #7C8199",
"M. c #7684A3",
"N. c #B79E82",
"B. c #B7A287",
"V. c #BCA284",
"C. c #BEA688",
"Z. c #BEA98D",
"A. c #868CA1",
"S. c #8794AF",
"D. c #9A9EAE",
"F. c #C1AC8F",
/* pixels */
"p.p.p.p.p.p.p.p.p.p.p.p.p.p.p.p.p.p.p.p.p.p.p.p.p.p.p.p.p.p.p.p.p.p.p.p.p.p.p.p.",
"p.p.p.p.p.p.p.p.p.p.p.p.p.p.p.p.p.p.p.p.p.p.p.p.p.p.p.p.p.p.p.p.p.p.p.p.p.p.p.p.",
"p.p.p.p.p.p.p.p.p.p.p.p.p.p.p.p.p.p.p.p.p.p.p.p.p.p.p.p.p.p.p.p.p.p.p.p.p.p.p.p.",
"p.p.p.p.p.p.p.p.p.p.p.p.p.p.p.p.p.p.p.p.p.p.p.p.p.p.p.p.p.p.p.p.p.p.p.p.p.p.p.p.",
"p.p.p.p.p.p.p.p.p.p.p.p.p.p.p.p.p.p.p.p.p.p.p.p.p.p.p.p.p.p.p.p.p.p.p.p.p.p.p.p.",
"p.p.p.p.p.p.p.p.p.p.p.y.y.y.y.y.y.y.p.y.y.y.p.p.p.p.p.p.p.p.p.p.p.p.p.p.p.p.p.p.",
"p.p.p.p.p.p.p.p.p.p.p.e.N b b b N C e.C N N e.y.p.p.p.p.p.p.p.p.p.p.p.p.p.p.p.p.",
"p.p.p.p.p.p.p.p.p.p.p.' @ # ; ; $ 8 B 8 # @ b C _ r.p.p.p.p.p.p.p.p.p.p.p.p.p.p.",
"p.p.p.p.p.p.p.p.p.p.p._ @ 5 g l d 5 # 7 6 o . . o C y.p.p.p.p.p.p.p.p.p.p.p.p.p.",
"p.p.p.p.p.p.p.p.p.p.y.) @ O > g g d 6 f f 6 7 d s 4 B r.y.p.p.p.p.p.p.p.p.p.p.p.",
"p.p.p.p.p.p.p.p.p.y.C e > 5 f g g l g l g g l l k 7 4 c e.p.p.p.p.p.p.p.p.p.p.p.",
"p.p.p.p.p.p.p.p.t.V 8 > f g g l k k l g l l g l A g d 3 M +.y.p.p.p.p.p.p.p.p.p.",
"p.p.p.p.p.p.p.p.O., - s k k g g k k k k g g g g g A g g $ c r.y.p.p.p.p.p.p.p.p.",
"p.p.p.p.p.p.p.p.O., - s g k g s g k k l g d g A L g A g ; r e.y.p.p.p.p.p.p.p.p.",
"p.p.p.p.p.p.p.p.O., - a s s s a g k k k g f E 2.2.L f g 6 2 c e.p.p.p.p.p.p.p.p.",
"p.p.p.p.p.p.p.p.O., - a f s a a g k k g A E 4.9.8.,.L f a - , O.p.p.p.p.p.p.p.p.",
"p.p.p.p.p.p.p.p.O., - d g g g z l g l L I <.q.f.f.3.P 5 5 - * +.p.p.p.p.p.p.p.p.",
"p.p.p.p.p.p.p.p.O., - s g g I 4.Y g A 1.X.x 0.C.B.J - . - > e $.p.p.p.p.p.p.p.p.",
"p.p.p.p.p.p.p.p.O.< - 6 d g Y 8.6.E L a.5.x a.Z.B.H #   O r O.y.p.p.p.p.p.p.p.p.",
"p.p.p.p.p.p.p.p.y.Z 8 - 6 d L 8.d.8.a.l.j.a.j.Z.C.a.H @ v +.u.p.p.p.p.p.p.p.p.p.",
"p.p.p.p.p.p.p.p.y.y.Z 8 : 5 k X.6.g.k.C.F.F.F.F.Z.l.o.* _ p.p.p.p.p.p.p.p.p.p.p.",
"p.p.p.p.p.p.p.p.p.p.p.O.1 2 5 d E 6.d.k.V.V.V.B.N.7.G 1 +.p.p.p.p.p.p.p.p.p.p.p.",
"p.p.p.p.p.p.p.p.p.p.p.y.e.8 $ 6 d I 6.q.f.f.f.w.7.j n e.y.p.p.p.p.p.p.p.p.p.p.p.",
"p.p.p.p.p.p.p.p.p.p.p.p.y.r + 6 a g I 5.n.n.n.-.z $ r u.p.p.p.p.p.p.p.p.p.p.p.p.",
"p.p.p.p.p.p.p.p.p.p.p.e.V K H s d h F :.m.m.A.:.s j S V e.p.p.p.p.p.p.p.p.p.p.p.",
"p.p.p.p.p.p.p.p.p.p.p.' * *.h.T A k F :.m.A.D.>.d 1.U * _ p.p.p.p.p.p.p.p.p.p.p.",
"p.p.p.p.p.p.p.p.p.p.i.O.0 &.s.a.R k F ;.M.S.D.:.d X.J 1 O.p.p.p.p.p.p.p.p.p.p.p.",
"p.p.p.p.p.p.p.p.p.p.i.y.$.n w F l k D =.v.b.b.=.p > t %.y.p.p.p.p.p.p.p.p.p.p.p.",
"p.p.p.p.p.p.p.p.p.p.p.u.@.0 % W [  ...z.x.c.c.{ & q N @.y.p.p.p.p.p.p.p.p.p.p.p.",
"p.p.p.p.p.p.p.p.p.p.r.#.^ 9 % W } | ] Q Q | z.W X r ( ( @.t.p.p.p.p.p.p.p.p.p.p.",
"p.p.p.p.p.p.p.p.p.p.#.` / q * u S i 9 = 9 i x y % m ( ( ` #.u.p.p.p.p.p.p.p.p.p.",
"p.p.p.p.p.p.p.p.p.y.@.( ( / ! ! ( ! ! ! ! ~ / ~ ! ( ( ( ( @.u.p.p.p.p.p.p.p.p.p.",
"p.p.p.p.p.p.p.p.p.p.y.#.` ( ( ( ( ( ( ( ( ( ( ( ( ( ( ` %.t.i.p.p.p.p.p.p.p.p.p.",
"p.p.p.p.p.p.p.p.p.p.p.y.%.#.#.#.#.#.#.#.#.#.#.#.#.#.%.%.y.p.p.p.p.p.p.p.p.p.p.p.",
"p.p.p.p.p.p.p.p.p.p.p.p.i.i.i.i.p.u.i.i.i.i.i.i.i.i.i.i.i.p.p.p.p.p.p.p.p.p.p.p.",
"p.p.p.p.p.p.p.p.p.p.p.p.p.p.p.p.p.p.p.p.p.p.p.p.p.p.p.p.p.p.p.p.p.p.p.p.p.p.p.p.",
"p.p.p.p.p.p.p.p.p.p.p.p.p.p.p.p.p.p.p.p.p.p.p.p.p.p.p.p.p.p.p.p.p.p.p.p.p.p.p.p.",
"p.p.p.p.p.p.p.p.p.p.p.p.p.p.p.p.p.p.p.p.p.p.p.p.p.p.p.p.p.p.p.p.p.p.p.p.p.p.p.p.",
"p.p.p.p.p.p.p.p.p.p.p.p.p.p.p.p.p.p.p.p.p.p.p.p.p.p.p.p.p.p.p.p.p.p.p.p.p.p.p.p.",
"p.p.p.p.p.p.p.p.p.p.p.p.p.p.p.p.p.p.p.p.p.p.p.p.p.p.p.p.p.p.p.p.p.p.p.p.p.p.p.p."
};
