/* XPM */
static char *result[] = {
/* columns rows colors chars-per-pixel */
"40 40 143 2 ",
"   c #161C0D",
".  c #211A0F",
"X  c #281711",
"o  c #251C12",
"O  c #2D1B13",
"+  c #251A1F",
"@  c #2E1E1B",
"#  c #311E15",
"$  c #301F19",
"%  c #0A2C0D",
"&  c #13200C",
"*  c #19230F",
"=  c #1A2510",
"-  c #142E11",
";  c #0C3313",
":  c #153213",
">  c #1A3213",
",  c #1B3618",
"<  c #1C3B1C",
"1  c #272313",
"2  c #2D2416",
"3  c #232E15",
"4  c #352117",
"5  c #362219",
"6  c #3B261A",
"7  c #332A19",
"8  c #3D291C",
"9  c #243216",
"0  c #283017",
"q  c #273618",
"w  c #2C351A",
"e  c #243D1E",
"r  c #2D391C",
"t  c #32331B",
"y  c #3C351F",
"u  c #343A1D",
"i  c #383D1F",
"p  c #261C23",
"a  c #1F3F20",
"s  c #262024",
"d  c #262827",
"f  c #302529",
"g  c #2D302D",
"h  c #3E3720",
"j  c #373E20",
"k  c #3B3B20",
"l  c #2A2636",
"z  c #2B2D36",
"x  c #2A3334",
"c  c #293B35",
"v  c #2E343D",
"b  c #3E343C",
"n  c #422C1E",
"m  c #462E20",
"M  c #4D3424",
"N  c #453B23",
"B  c #4B3A25",
"V  c #433029",
"C  c #503625",
"Z  c #533827",
"A  c #563C29",
"S  c #5A3D2A",
"D  c #413130",
"F  c #164523",
"G  c #1D4423",
"H  c #1C4C29",
"J  c #1F522F",
"K  c #1F5430",
"L  c #264524",
"P  c #294323",
"I  c #224827",
"U  c #21522D",
"Y  c #245433",
"T  c #2B5735",
"R  c #235A35",
"E  c #245E39",
"W  c #285A39",
"Q  c #27623D",
"!  c #28643E",
"~  c #54452B",
"^  c #5D412C",
"/  c #5D492E",
"(  c #62442E",
")  c #654630",
"_  c #674A31",
"`  c #6C4D34",
"'  c #704F35",
"]  c #6C5034",
"[  c #725136",
"{  c #755338",
"}  c #322F40",
"|  c #2F314C",
" . c #333146",
".. c #3B3442",
"X. c #313C47",
"o. c #34344D",
"O. c #38374D",
"+. c #343754",
"@. c #343B5F",
"#. c #373E63",
"$. c #296640",
"%. c #2C6A42",
"&. c #306D45",
"*. c #317047",
"=. c #34754A",
"-. c #37794E",
";. c #397B4E",
":. c #3A7E51",
">. c #3A546B",
",. c #384471",
"<. c #3A4F76",
"1. c #3B4A7D",
"2. c #3D577C",
"3. c #3D597A",
"4. c #3F637E",
"5. c #3F8354",
"6. c #428657",
"7. c #498759",
"8. c #458C5B",
"9. c #488D5C",
"0. c #49915F",
"q. c #4C9562",
"w. c #4E9964",
"e. c #509B66",
"r. c #3C4D83",
"t. c #3D518A",
"y. c #3F5593",
"u. c #405C8F",
"i. c #405797",
"p. c #405897",
"a. c #425B9E",
"s. c #406581",
"d. c #436496",
"f. c #43639C",
"g. c #447293",
"h. c #4463A1",
"j. c #4776A1",
"k. c #487BA3",
"l. c #4874A9",
"z. c #4A7BAC",
"x. c #4B81AF",
"c. c #4C86B2",
"v. c #4D8AB3",
/* pixels */
"e.e.w.w.e.w.*.q.$.R H w.e.=.; Q w.9.Q ;.w.w.&.Q ; w.e.5.F J 9.w.q.*.e.e.e.e.e.e.",
"e.e.w.w.e.w.*.$.R - < =.q.*., : E K - F Q $.E : : $.q.:.G - Y E %.w.e.e.e.e.e.e.",
"e.e.9.5.9.%.K R q S N a K a B { q u ` h G R e S M , Y I ~ ( q % %.w.q.6.0.e.e.e.",
"e.e.w.5.R P r r { { ` m 3 B ` { { { { ) h r _ { ^ ~ q N [ { { i K 5.5.H U 0.e.e.",
"e.e.q.&.e / { { { { { ) S ' { { { { { ` ` { { { { { ` _ { { { { j H H e 0 T 0.e.",
"e.q.%.P ~ ` { { { { { ' ` { { { { { { ` ` { { { { [ _ { { { { { [ N w y M 9 6.e.",
"-.=.K u { ) ' { { { { _ S ' { { { { ` Z ) { { { { S ^ { { { { { { ` C C t I 0.w.",
"$.E e B S Z ` { { ` $ # m A ' { ] 5 5 8 Z ` { { 4 O 6 ) { { { { { A C ^ u U *.w.",
"9.R q ) C C # # # f u.r.} X O # @ t.t.+.X O O # t.r.#.X # O O O O # S [ i ; 5.w.",
"w.$.K k ( # 1.i.i.i.a.i.a.i.i.i.i.a.a.a.i.i.i.p.a.a.a.i.i.i.i.i.i.1.8 { u J 0.w.",
"%.$.K i n ,.a.a.h.a.a.a.a.a.c.v.v.v.z.a.a.a.a.a.v.c.a.a.a.a.a.a.a.a.,.m i Y 9.w.",
"0.$.H k V 1.h.c.c.v.z.a.z.v.c.v.v.v.v.l.h.h.x.v.v.v.z.h.h.h.h.c.v.a.,.m i J $.w.",
"$.H u S O.y.z.v.v.v.v.v.v.v.v.v.v.v.v.v.v.v.v.v.v.v.v.v.v.v.v.v.v.x.1.D h H Q w.",
"$.a N ` m ,.c.v.v.v.v.v.v.v.v.v.v.v.v.v.v.v.v.v.v.v.v.v.v.v.v.v.c.c.a.@.2 < E 6.",
";.Q a B 8 ,.z.v.v.v.v.v.v.v.v.v.v.v.v.v.v.v.v.v.v.v.v.v.v.v.v.v.v.x.t...3 K -.:.",
"w.:.K 3 $ ,.c.v.v.v.v.v.v.v.v.v.v.v.v.v.v.v.v.v.v.v.v.v.v.v.v.v.v.x.,.m j K q.e.",
"w.0.K 0 5 3.c.v.v.v.v.v.v.v.v.v.v.v.v.v.v.v.v.v.v.v.v.v.v.v.v.v.v.x.,.1 L =.w.e.",
"e.0.K * o.j.v.v.v.v.v.v.v.v.v.v.v.v.v.v.v.v.v.v.v.v.v.v.v.v.v.v.c.c.,.  H 8.e.e.",
"e.q.K & @.z.v.v.v.v.v.v.v.v.v.v.v.v.v.v.v.v.v.v.v.v.v.v.v.v.v.v.v.x.,.  H 8.w.w.",
"w.$.Y 3 5 s.v.v.v.v.v.v.v.v.v.v.v.v.v.v.v.v.v.v.v.v.v.v.v.v.v.v.v.g.$ w H $.q.w.",
"$.R 9 C 5 4.v.v.v.v.v.v.v.v.v.v.v.v.v.v.v.v.v.v.v.v.v.v.v.v.v.v.v.g.O Z w Y $.$.",
"%.< ` ) 6 ,.x.v.v.v.v.v.v.v.v.v.v.v.v.v.v.v.v.v.v.v.v.v.v.v.v.v.c.r.4 ( ` e E w.",
"w.$.e ] n ,.x.v.v.v.v.v.v.v.v.v.v.v.v.v.v.v.v.v.v.v.v.v.v.v.v.v.c.r.8 { i J *.w.",
"e.0.J i m <.c.v.v.v.v.v.v.v.v.v.v.v.v.v.v.v.v.v.v.v.v.v.v.v.v.v.c.r.6 { i J 0.e.",
"e.0.J 0 b g.v.v.v.v.v.v.v.v.v.v.v.v.v.v.v.v.v.v.v.v.v.v.v.v.v.v.c.i.b ( i J 0.e.",
"w.;.U & @.z.v.v.v.v.v.v.v.v.v.v.v.v.v.v.v.v.v.v.v.v.v.v.v.v.v.v.v.p.,.n i K -.w.",
"w.Q < 2 @.z.v.v.v.v.v.v.v.v.v.v.v.v.v.v.v.v.v.v.v.v.v.v.v.v.v.v.v.l.,.n / L E w.",
"*.< 7  .t.z.v.v.v.v.v.v.v.v.v.v.v.v.v.v.v.v.v.v.v.v.v.v.v.v.v.v.v.x.i.+.M 3 R q.",
"! > A | l.v.v.v.v.v.v.v.v.v.v.v.v.v.v.v.v.v.v.v.v.v.v.v.v.v.v.v.v.x.a.#.= H $.%.",
"q.R r M >.v.v.v.v.v.v.v.v.v.v.v.v.v.v.v.v.v.v.v.v.v.v.v.v.v.v.v.c.x.,.m u K 0.w.",
"e.q.K & >.v.v.v.v.v.v.v.v.v.v.v.v.v.v.v.v.v.v.v.v.v.v.v.v.v.v.v.c.c.,.n j Y q.w.",
"w.9.J   >.v.v.v.v.v.v.v.v.v.v.v.v.v.v.v.v.v.v.v.v.v.v.v.v.v.v.v.c.c.,.  H 8.e.e.",
"e.q.J   @.z.v.v.v.v.v.v.v.v.v.v.v.v.v.v.v.v.v.v.v.v.v.v.v.v.v.v.v.z.,.  H 8.e.e.",
"e.q.K *  .d.c.v.v.v.v.v.v.v.v.v.v.v.v.v.v.v.v.v.v.v.v.v.v.v.v.v.v.c.,.1 L =.w.w.",
"w.0.K r Z O.k.v.v.v.v.v.v.v.v.v.v.v.v.v.v.v.v.v.v.v.v.v.v.v.v.v.c.c.,.8 t K 0.e.",
"w.-.E L / 8 g.v.v.v.v.v.v.v.v.v.v.v.v.c.v.v.v.v.v.v.v.v.v.v.v.v.c.d.} 7 G E -.w.",
"w.8.:.E L o v x.v.v.v.z.>.X.d.c.c.v.g.X.X.g.v.v.v.c.u.X.2.z.v.v.x.l . e E :.8.w.",
"e.w.w.:.E Y Y x h.u.z l c Y z x v u.c Y T c p.h.z z z Y x z x f.z Y Y E :.q.e.e.",
"e.e.e.5.5.q.0.7.s d W W ! $.W T T + 3 ;.0.7.g p W W W $.Q T T s X q.q.:.5.e.e.e.",
"e.e.e.w.w.w.e.e.q.9.=.w.w.=.9.e.q.&.6.5.e.e.q.q.%.w.w.5.6.q.w.$.q.e.e.e.w.e.e.e."
};
